<?xml version="1.0" encoding="UTF-8" standalone="no"?>
<!-- Generator: Gravit.io -->
<svg xmlns="http://www.w3.org/2000/svg" xmlns:xlink="http://www.w3.org/1999/xlink" style="isolation:isolate" viewBox="102.86 188.44 299.52 188.16" width="299.52pt" height="188.16pt"><path d=" M 397.58 212.92 L 372.86 212.92 L 372.86 352.36 L 397.58 352.36 L 402.38 376.6 L 341.9 376.6 L 341.9 188.44 L 402.38 188.44 L 397.58 212.92 L 397.58 212.92 Z  M 230.78 355.48 L 199.82 355.48 L 199.82 192.28 L 250.94 192.28 L 250.94 192.28 Q 277.58 192.28 296.54 204.4 L 296.54 204.4 L 296.54 204.4 Q 315.5 216.52 315.5 244.6 L 315.5 244.6 L 315.5 244.6 Q 315.5 272.44 295.1 285.52 L 295.1 285.52 L 295.1 285.52 Q 274.7 298.6 248.78 298.6 L 248.78 298.6 L 230.78 298.6 L 230.78 355.48 L 230.78 355.48 Z  M 249.98 218.2 L 249.98 218.2 L 230.78 218.2 L 230.78 272.92 L 250.46 272.92 L 250.46 272.92 Q 264.38 272.92 273.02 266.56 L 273.02 266.56 L 273.02 266.56 Q 281.66 260.2 282.62 246.52 L 282.62 246.52 L 282.62 246.52 Q 282.62 230.68 273.98 224.44 L 273.98 224.44 L 273.98 224.44 Q 265.34 218.2 249.98 218.2 Z  M 107.18 352.36 L 131.9 352.36 L 131.9 212.92 L 107.18 212.92 L 102.86 188.44 L 163.34 188.44 L 163.34 376.6 L 102.86 376.6 L 107.18 352.36 L 107.18 352.36 Z " fill="rgb(0,0,0)"/></svg>